<svg xmlns="http://www.w3.org/2000/svg" viewBox="0 0 720 340" role="img" aria-labelledby="sd-bell-title sd-bell-desc">
  <title id="sd-bell-title">Bell curve for the example 2, 4, 6, 8</title>
  <desc id="sd-bell-desc">A normal curve centred at the mean 5 with population standard deviation about 2.24. The shaded band is one standard deviation on each side. The four data values are marked on the curve.</desc>
  <path d="M238.68,250 L238.68,122.63 L241.82,119.80 L244.96,116.97 L248.10,114.15 L251.24,111.34 L254.38,108.54 L257.52,105.75 L260.66,102.98 L263.80,100.23 L266.94,97.51 L270.08,94.81 L273.23,92.15 L276.37,89.51 L279.51,86.92 L282.65,84.36 L285.79,81.85 L288.93,79.38 L292.07,76.96 L295.21,74.59 L298.35,72.28 L301.49,70.03 L304.63,67.84 L307.77,65.71 L310.91,63.65 L314.05,61.67 L317.19,59.75 L320.33,57.91 L323.47,56.15 L326.61,54.46 L329.75,52.86 L332.89,51.35 L336.03,49.92 L339.17,48.58 L342.31,47.34 L345.46,46.18 L348.60,45.12 L351.74,44.16 L354.88,43.29 L358.02,42.53 L361.16,41.86 L364.30,41.29 L367.44,40.83 L370.58,40.47 L373.72,40.21 L376.86,40.05 L380.00,40.00 L383.14,40.05 L386.28,40.21 L389.42,40.47 L392.56,40.83 L395.70,41.29 L398.84,41.86 L401.98,42.53 L405.12,43.29 L408.26,44.16 L411.40,45.12 L414.54,46.18 L417.69,47.34 L420.83,48.58 L423.97,49.92 L427.11,51.35 L430.25,52.86 L433.39,54.46 L436.53,56.15 L439.67,57.91 L442.81,59.75 L445.95,61.67 L449.09,63.65 L452.23,65.71 L455.37,67.84 L458.51,70.03 L461.65,72.28 L464.79,74.59 L467.93,76.96 L471.07,79.38 L474.21,81.85 L477.35,84.36 L480.49,86.92 L483.63,89.51 L486.77,92.15 L489.92,94.81 L493.06,97.51 L496.20,100.23 L499.34,102.98 L502.48,105.75 L505.62,108.54 L508.76,111.34 L511.90,114.15 L515.04,116.97 L518.18,119.80 L521.32,122.63 L521.32,250 Z" fill="var(--accent)" fill-opacity="0.18"/>
  <path d="M64.00,232.76 L66.87,231.96 L69.75,231.14 L72.62,230.28 L75.49,229.39 L78.36,228.48 L81.24,227.53 L84.11,226.54 L86.98,225.53 L89.85,224.48 L92.73,223.40 L95.60,222.28 L98.47,221.13 L101.35,219.94 L104.22,218.72 L107.09,217.46 L109.96,216.17 L112.84,214.83 L115.71,213.46 L118.58,212.05 L121.45,210.61 L124.33,209.12 L127.20,207.60 L130.07,206.04 L132.95,204.44 L135.82,202.80 L138.69,201.13 L141.56,199.41 L144.44,197.66 L147.31,195.86 L150.18,194.03 L153.05,192.16 L155.93,190.26 L158.80,188.31 L161.67,186.33 L164.55,184.31 L167.42,182.26 L170.29,180.17 L173.16,178.05 L176.04,175.89 L178.91,173.70 L181.78,171.47 L184.65,169.22 L187.53,166.93 L190.40,164.62 L193.27,162.28 L196.15,159.91 L199.02,157.51 L201.89,155.09 L204.76,152.65 L207.64,150.19 L210.51,147.70 L213.38,145.20 L216.25,142.68 L219.13,140.14 L222.00,137.60 L224.87,135.03 L227.75,132.47 L230.62,129.89 L233.49,127.30 L236.36,124.72 L239.24,122.13 L242.11,119.54 L244.98,116.95 L247.85,114.37 L250.73,111.80 L253.60,109.23 L256.47,106.68 L259.35,104.14 L262.22,101.62 L265.09,99.11 L267.96,96.63 L270.84,94.17 L273.71,91.74 L276.58,89.33 L279.45,86.96 L282.33,84.62 L285.20,82.31 L288.07,80.04 L290.95,77.82 L293.82,75.63 L296.69,73.50 L299.56,71.40 L302.44,69.36 L305.31,67.37 L308.18,65.44 L311.05,63.56 L313.93,61.74 L316.80,59.98 L319.67,58.29 L322.55,56.66 L325.42,55.09 L328.29,53.60 L331.16,52.17 L334.04,50.82 L336.91,49.54 L339.78,48.33 L342.65,47.21 L345.53,46.16 L348.40,45.18 L351.27,44.29 L354.15,43.49 L357.02,42.76 L359.89,42.12 L362.76,41.56 L365.64,41.08 L368.51,40.69 L371.38,40.39 L374.25,40.17 L377.13,40.04 L380.00,40.00 L382.87,40.04 L385.75,40.17 L388.62,40.39 L391.49,40.69 L394.36,41.08 L397.24,41.56 L400.11,42.12 L402.98,42.76 L405.85,43.49 L408.73,44.29 L411.60,45.18 L414.47,46.16 L417.35,47.21 L420.22,48.33 L423.09,49.54 L425.96,50.82 L428.84,52.17 L431.71,53.60 L434.58,55.09 L437.45,56.66 L440.33,58.29 L443.20,59.98 L446.07,61.74 L448.95,63.56 L451.82,65.44 L454.69,67.37 L457.56,69.36 L460.44,71.40 L463.31,73.50 L466.18,75.63 L469.05,77.82 L471.93,80.04 L474.80,82.31 L477.67,84.62 L480.55,86.96 L483.42,89.33 L486.29,91.74 L489.16,94.17 L492.04,96.63 L494.91,99.11 L497.78,101.62 L500.65,104.14 L503.53,106.68 L506.40,109.23 L509.27,111.80 L512.15,114.37 L515.02,116.95 L517.89,119.54 L520.76,122.13 L523.64,124.72 L526.51,127.30 L529.38,129.89 L532.25,132.47 L535.13,135.03 L538.00,137.60 L540.87,140.14 L543.75,142.68 L546.62,145.20 L549.49,147.70 L552.36,150.19 L555.24,152.65 L558.11,155.09 L560.98,157.51 L563.85,159.91 L566.73,162.28 L569.60,164.62 L572.47,166.93 L575.35,169.22 L578.22,171.47 L581.09,173.70 L583.96,175.89 L586.84,178.05 L589.71,180.17 L592.58,182.26 L595.45,184.31 L598.33,186.33 L601.20,188.31 L604.07,190.26 L606.95,192.16 L609.82,194.03 L612.69,195.86 L615.56,197.66 L618.44,199.41 L621.31,201.13 L624.18,202.80 L627.05,204.44 L629.93,206.04 L632.80,207.60 L635.67,209.12 L638.55,210.61 L641.42,212.05 L644.29,213.46 L647.16,214.83 L650.04,216.17 L652.91,217.46 L655.78,218.72 L658.65,219.94 L661.53,221.13 L664.40,222.28 L667.27,223.40 L670.15,224.48 L673.02,225.53 L675.89,226.54 L678.76,227.53 L681.64,228.48 L684.51,229.39 L687.38,230.28 L690.25,231.14 L693.13,231.96 L696.00,232.76" fill="none" stroke="var(--accent)" stroke-width="2.4" stroke-linejoin="round"/>
  <line x1="64" y1="250" x2="696" y2="250" stroke="var(--text-muted)" stroke-width="1.2"/>
  <line x1="380.00" y1="40" x2="380.00" y2="250" stroke="var(--accent)" stroke-width="1.4"/>
  <line x1="238.68" y1="122.63" x2="238.68" y2="250" stroke="var(--accent-soft)" stroke-width="1.1" stroke-dasharray="4 3"/>
  <line x1="521.32" y1="122.63" x2="521.32" y2="250" stroke="var(--accent-soft)" stroke-width="1.1" stroke-dasharray="4 3"/>
    <line x1="190.40" y1="250" x2="190.40" y2="256" stroke="var(--text-muted)" stroke-width="1"/>
    <text x="190.40" y="272" text-anchor="middle">2</text>
    <line x1="316.80" y1="250" x2="316.80" y2="256" stroke="var(--text-muted)" stroke-width="1"/>
    <text x="316.80" y="272" text-anchor="middle">4</text>
    <line x1="380.00" y1="250" x2="380.00" y2="256" stroke="var(--text-muted)" stroke-width="1"/>
    <text x="380.00" y="272" text-anchor="middle">5</text>
    <line x1="443.20" y1="250" x2="443.20" y2="256" stroke="var(--text-muted)" stroke-width="1"/>
    <text x="443.20" y="272" text-anchor="middle">6</text>
    <line x1="569.60" y1="250" x2="569.60" y2="256" stroke="var(--text-muted)" stroke-width="1"/>
    <text x="569.60" y="272" text-anchor="middle">8</text>
    <circle cx="190.40" cy="164.62" r="4.2" fill="var(--accent)" stroke="var(--bg)" stroke-width="1.5"/>
    <circle cx="316.80" cy="59.98" r="4.2" fill="var(--accent)" stroke="var(--bg)" stroke-width="1.5"/>
    <circle cx="443.20" cy="59.98" r="4.2" fill="var(--accent)" stroke="var(--bg)" stroke-width="1.5"/>
    <circle cx="569.60" cy="164.62" r="4.2" fill="var(--accent)" stroke="var(--bg)" stroke-width="1.5"/>
  <text x="380.00" y="28" text-anchor="middle" fill="var(--text)">x̄ = 5</text>
  <text x="238.68" y="112.63" text-anchor="middle">−1σ</text>
  <text x="521.32" y="112.63" text-anchor="middle">+1σ</text>
  <text x="380.00" y="175" text-anchor="middle" fill="var(--accent-soft)">one σx either side of the mean</text>
</svg>
