<svg xmlns="http://www.w3.org/2000/svg" viewBox="0 0 720 340" role="img" aria-labelledby="reg-lin-title reg-lin-desc">
  <title id="reg-lin-title">Linear regression on three collinear points</title>
  <desc id="reg-lin-desc">Sample points (1, 2), (2, 4), and (3, 6) with fitted line y = 2x (A = 0, B = 2). Correlation r = 1.</desc>
  
  <line x1="64" y1="250" x2="696" y2="250" stroke="var(--text-muted)" stroke-width="1.2"/>
  <line x1="64" y1="40" x2="64" y2="250" stroke="var(--text-muted)" stroke-width="1.2"/>
  <path d="M64.00,250.00 L67.16,248.95 L70.32,247.90 L73.48,246.85 L76.64,245.80 L79.80,244.75 L82.96,243.70 L86.12,242.65 L89.28,241.60 L92.44,240.55 L95.60,239.50 L98.76,238.45 L101.92,237.40 L105.08,236.35 L108.24,235.30 L111.40,234.25 L114.56,233.20 L117.72,232.15 L120.88,231.10 L124.04,230.05 L127.20,229.00 L130.36,227.95 L133.52,226.90 L136.68,225.85 L139.84,224.80 L143.00,223.75 L146.16,222.70 L149.32,221.65 L152.48,220.60 L155.64,219.55 L158.80,218.50 L161.96,217.45 L165.12,216.40 L168.28,215.35 L171.44,214.30 L174.60,213.25 L177.76,212.20 L180.92,211.15 L184.08,210.10 L187.24,209.05 L190.40,208.00 L193.56,206.95 L196.72,205.90 L199.88,204.85 L203.04,203.80 L206.20,202.75 L209.36,201.70 L212.52,200.65 L215.68,199.60 L218.84,198.55 L222.00,197.50 L225.16,196.45 L228.32,195.40 L231.48,194.35 L234.64,193.30 L237.80,192.25 L240.96,191.20 L244.12,190.15 L247.28,189.10 L250.44,188.05 L253.60,187.00 L256.76,185.95 L259.92,184.90 L263.08,183.85 L266.24,182.80 L269.40,181.75 L272.56,180.70 L275.72,179.65 L278.88,178.60 L282.04,177.55 L285.20,176.50 L288.36,175.45 L291.52,174.40 L294.68,173.35 L297.84,172.30 L301.00,171.25 L304.16,170.20 L307.32,169.15 L310.48,168.10 L313.64,167.05 L316.80,166.00 L319.96,164.95 L323.12,163.90 L326.28,162.85 L329.44,161.80 L332.60,160.75 L335.76,159.70 L338.92,158.65 L342.08,157.60 L345.24,156.55 L348.40,155.50 L351.56,154.45 L354.72,153.40 L357.88,152.35 L361.04,151.30 L364.20,150.25 L367.36,149.20 L370.52,148.15 L373.68,147.10 L376.84,146.05 L380.00,145.00 L383.16,143.95 L386.32,142.90 L389.48,141.85 L392.64,140.80 L395.80,139.75 L398.96,138.70 L402.12,137.65 L405.28,136.60 L408.44,135.55 L411.60,134.50 L414.76,133.45 L417.92,132.40 L421.08,131.35 L424.24,130.30 L427.40,129.25 L430.56,128.20 L433.72,127.15 L436.88,126.10 L440.04,125.05 L443.20,124.00 L446.36,122.95 L449.52,121.90 L452.68,120.85 L455.84,119.80 L459.00,118.75 L462.16,117.70 L465.32,116.65 L468.48,115.60 L471.64,114.55 L474.80,113.50 L477.96,112.45 L481.12,111.40 L484.28,110.35 L487.44,109.30 L490.60,108.25 L493.76,107.20 L496.92,106.15 L500.08,105.10 L503.24,104.05 L506.40,103.00 L509.56,101.95 L512.72,100.90 L515.88,99.85 L519.04,98.80 L522.20,97.75 L525.36,96.70 L528.52,95.65 L531.68,94.60 L534.84,93.55 L538.00,92.50 L541.16,91.45 L544.32,90.40 L547.48,89.35 L550.64,88.30 L553.80,87.25 L556.96,86.20 L560.12,85.15 L563.28,84.10 L566.44,83.05 L569.60,82.00 L572.76,80.95 L575.92,79.90 L579.08,78.85 L582.24,77.80 L585.40,76.75 L588.56,75.70 L591.72,74.65 L594.88,73.60 L598.04,72.55 L601.20,71.50 L604.36,70.45 L607.52,69.40 L610.68,68.35 L613.84,67.30 L617.00,66.25 L620.16,65.20 L623.32,64.15 L626.48,63.10 L629.64,62.05 L632.80,61.00 L635.96,59.95 L639.12,58.90 L642.28,57.85 L645.44,56.80 L648.60,55.75 L651.76,54.70 L654.92,53.65 L658.08,52.60 L661.24,51.55 L664.40,50.50 L667.56,49.45 L670.72,48.40 L673.88,47.35 L677.04,46.30 L680.20,45.25 L683.36,44.20 L686.52,43.15 L689.68,42.10 L692.84,41.05 L696.00,40.00" fill="none" stroke="var(--accent)" stroke-width="2.4" stroke-linejoin="round"/>
  <circle cx="222.00" cy="197.50" r="5.2" fill="var(--accent)" stroke="var(--bg)" stroke-width="1.6"/>
  <circle cx="380.00" cy="145.00" r="5.2" fill="var(--accent)" stroke="var(--bg)" stroke-width="1.6"/>
  <circle cx="538.00" cy="92.50" r="5.2" fill="var(--accent)" stroke="var(--bg)" stroke-width="1.6"/>
  <line x1="64.00" y1="250" x2="64.00" y2="256" stroke="var(--text-muted)" stroke-width="1"/>
  <text x="64.00" y="270" text-anchor="middle" fill="var(--text)">0</text>
  <line x1="222.00" y1="250" x2="222.00" y2="256" stroke="var(--text-muted)" stroke-width="1"/>
  <text x="222.00" y="270" text-anchor="middle" fill="var(--text)">1</text>
  <line x1="380.00" y1="250" x2="380.00" y2="256" stroke="var(--text-muted)" stroke-width="1"/>
  <text x="380.00" y="270" text-anchor="middle" fill="var(--text)">2</text>
  <line x1="538.00" y1="250" x2="538.00" y2="256" stroke="var(--text-muted)" stroke-width="1"/>
  <text x="538.00" y="270" text-anchor="middle" fill="var(--text)">3</text>
  <line x1="696.00" y1="250" x2="696.00" y2="256" stroke="var(--text-muted)" stroke-width="1"/>
  <text x="696.00" y="270" text-anchor="middle" fill="var(--text)">4</text>
  <text x="88" y="56" fill="var(--accent-soft)">y</text>
  <text x="688" y="286" text-anchor="end" fill="var(--text)">x</text>
  <text x="360" y="28" text-anchor="middle" fill="var(--text)">y = A + Bx  →  y = 2x</text>
  <text x="360" y="302" text-anchor="middle" fill="var(--accent-soft)">Dots are your (x, y) pairs; the line is the calculator fit (A = 0, B = 2, r = 1)</text>

</svg>
