<svg xmlns="http://www.w3.org/2000/svg" viewBox="0 0 720 340" role="img" aria-labelledby="reg-exp-title reg-exp-desc">
  <title id="reg-exp-title">Exponential regression with increasing slope</title>
  <desc id="reg-exp-desc">Fitted curve y = 2 e^(0.5x) through sample points showing compound growth.</desc>
  
  <line x1="64" y1="250" x2="696" y2="250" stroke="var(--text-muted)" stroke-width="1.2"/>
  <line x1="64" y1="40" x2="64" y2="250" stroke="var(--text-muted)" stroke-width="1.2"/>
  <path d="M64.00,208.00 L67.16,207.63 L70.32,207.26 L73.48,206.88 L76.64,206.50 L79.80,206.12 L82.96,205.74 L86.12,205.35 L89.28,204.95 L92.44,204.56 L95.60,204.16 L98.76,203.76 L101.92,203.35 L105.08,202.94 L108.24,202.53 L111.40,202.11 L114.56,201.69 L117.72,201.26 L120.88,200.84 L124.04,200.40 L127.20,199.97 L130.36,199.53 L133.52,199.08 L136.68,198.64 L139.84,198.19 L143.00,197.73 L146.16,197.27 L149.32,196.81 L152.48,196.34 L155.64,195.87 L158.80,195.39 L161.96,194.91 L165.12,194.43 L168.28,193.94 L171.44,193.45 L174.60,192.95 L177.76,192.45 L180.92,191.94 L184.08,191.43 L187.24,190.92 L190.40,190.40 L193.56,189.88 L196.72,189.35 L199.88,188.81 L203.04,188.28 L206.20,187.73 L209.36,187.19 L212.52,186.63 L215.68,186.08 L218.84,185.52 L222.00,184.95 L225.16,184.38 L228.32,183.80 L231.48,183.22 L234.64,182.63 L237.80,182.04 L240.96,181.44 L244.12,180.84 L247.28,180.23 L250.44,179.62 L253.60,179.00 L256.76,178.38 L259.92,177.75 L263.08,177.11 L266.24,176.47 L269.40,175.83 L272.56,175.17 L275.72,174.52 L278.88,173.85 L282.04,173.18 L285.20,172.51 L288.36,171.83 L291.52,171.14 L294.68,170.45 L297.84,169.75 L301.00,169.04 L304.16,168.33 L307.32,167.61 L310.48,166.89 L313.64,166.16 L316.80,165.42 L319.96,164.68 L323.12,163.93 L326.28,163.17 L329.44,162.41 L332.60,161.64 L335.76,160.86 L338.92,160.08 L342.08,159.29 L345.24,158.49 L348.40,157.69 L351.56,156.88 L354.72,156.06 L357.88,155.23 L361.04,154.40 L364.20,153.56 L367.36,152.71 L370.52,151.86 L373.68,151.00 L376.84,150.12 L380.00,149.25 L383.16,148.36 L386.32,147.47 L389.48,146.57 L392.64,145.66 L395.80,144.74 L398.96,143.82 L402.12,142.88 L405.28,141.94 L408.44,140.99 L411.60,140.03 L414.76,139.07 L417.92,138.09 L421.08,137.11 L424.24,136.12 L427.40,135.12 L430.56,134.11 L433.72,133.09 L436.88,132.06 L440.04,131.02 L443.20,129.98 L446.36,128.92 L449.52,127.86 L452.68,126.79 L455.84,125.70 L459.00,124.61 L462.16,123.51 L465.32,122.40 L468.48,121.28 L471.64,120.14 L474.80,119.00 L477.96,117.85 L481.12,116.69 L484.28,115.52 L487.44,114.34 L490.60,113.15 L493.76,111.94 L496.92,110.73 L500.08,109.51 L503.24,108.27 L506.40,107.03 L509.56,105.77 L512.72,104.50 L515.88,103.22 L519.04,101.93 L522.20,100.63 L525.36,99.32 L528.52,97.99 L531.68,96.66 L534.84,95.31 L538.00,93.95 L541.16,92.58 L544.32,91.20 L547.48,89.80 L550.64,88.39 L553.80,86.97 L556.96,85.54 L560.12,84.09 L563.28,82.64 L566.44,81.17 L569.60,79.68 L572.76,78.18 L575.92,76.67 L579.08,75.15 L582.24,73.61 L585.40,72.06 L588.56,70.50 L591.72,68.92 L594.88,67.33 L598.04,65.73 L601.20,64.11 L604.36,62.47 L607.52,60.83 L610.68,59.16 L613.84,57.49 L617.00,55.79 L620.16,54.09 L623.32,52.37 L626.48,50.63 L629.64,48.88 L632.80,47.11 L635.96,45.33 L639.12,43.53 L642.28,41.71 L645.44,39.88 L648.60,38.04 L651.76,36.17 L654.92,34.29 L658.08,32.40 L661.24,30.49 L664.40,28.56 L667.56,26.61 L670.72,24.65 L673.88,22.67 L677.04,20.67 L680.20,18.65 L683.36,16.62 L686.52,14.57 L689.68,12.50 L692.84,10.41 L696.00,8.31" fill="none" stroke="var(--accent)" stroke-width="2.4" stroke-linejoin="round"/>
  <circle cx="64.00" cy="208.00" r="5.2" fill="var(--accent)" stroke="var(--bg)" stroke-width="1.6"/>
  <circle cx="244.57" cy="180.70" r="5.2" fill="var(--accent)" stroke="var(--bg)" stroke-width="1.6"/>
  <circle cx="425.14" cy="135.76" r="5.2" fill="var(--accent)" stroke="var(--bg)" stroke-width="1.6"/>
  <circle cx="605.71" cy="61.84" r="5.2" fill="var(--accent)" stroke="var(--bg)" stroke-width="1.6"/>
  <line x1="64.00" y1="250" x2="64.00" y2="256" stroke="var(--text-muted)" stroke-width="1"/>
  <text x="64.00" y="270" text-anchor="middle" fill="var(--text)">0</text>
  <line x1="222.00" y1="250" x2="222.00" y2="256" stroke="var(--text-muted)" stroke-width="1"/>
  <text x="222.00" y="270" text-anchor="middle" fill="var(--text)">0.9</text>
  <line x1="380.00" y1="250" x2="380.00" y2="256" stroke="var(--text-muted)" stroke-width="1"/>
  <text x="380.00" y="270" text-anchor="middle" fill="var(--text)">1.8</text>
  <line x1="538.00" y1="250" x2="538.00" y2="256" stroke="var(--text-muted)" stroke-width="1"/>
  <text x="538.00" y="270" text-anchor="middle" fill="var(--text)">2.6</text>
  <line x1="696.00" y1="250" x2="696.00" y2="256" stroke="var(--text-muted)" stroke-width="1"/>
  <text x="696.00" y="270" text-anchor="middle" fill="var(--text)">3.5</text>
  <text x="88" y="56" fill="var(--accent-soft)">y</text>
  <text x="688" y="286" text-anchor="end" fill="var(--text)">x</text>
  <text x="360" y="28" text-anchor="middle" fill="var(--text)">y = A e^(Bx)</text>
  <text x="360" y="302" text-anchor="middle" fill="var(--accent-soft)">Each step up in x multiplies y by about e^B — compound growth or decay</text>

</svg>
